<?xml version="1.0" encoding="UTF-8" standalone="no"?>
<svg
   xmlns:dc="http://purl.org/dc/elements/1.1/"
   xmlns:cc="http://creativecommons.org/ns#"
   xmlns:rdf="http://www.w3.org/1999/02/22-rdf-syntax-ns#"
   xmlns:svg="http://www.w3.org/2000/svg"
   xmlns="http://www.w3.org/2000/svg"
   xmlns:sodipodi="http://sodipodi.sourceforge.net/DTD/sodipodi-0.dtd"
   xmlns:inkscape="http://www.inkscape.org/namespaces/inkscape"
   inkscape:version="1.0 (4035a4fb49, 2020-05-01)"
   sodipodi:docname="NGIAssure.purpleblue.hex.svg"
   xml:space="preserve"
   enable-background="new 0 0 198.425 198.425"
   viewBox="0 0 165.92125 191.45086"
   height="191.45087"
   width="165.92125"
   y="0px"
   x="0px"
   id="Ebene_1"
   version="1.1"><metadata
   id="metadata4142"><rdf:RDF><cc:Work
       rdf:about=""><dc:format>image/svg+xml</dc:format><dc:type
         rdf:resource="http://purl.org/dc/dcmitype/StillImage" /><dc:title></dc:title></cc:Work></rdf:RDF></metadata><defs
   id="defs4140"><linearGradient
     gradientTransform="translate(-121.6051,-420.10694)"
     id="Sfumatura_senza_nome_277"
     x1="365.94"
     y1="183.94"
     x2="132.10001"
     y2="411.34"
     gradientUnits="userSpaceOnUse"><stop
       offset="0"
       stop-color="#5697ff"
       id="stop1798" /><stop
       offset="1"
       stop-color="#6a0041"
       id="stop1800" /></linearGradient></defs><sodipodi:namedview
   inkscape:document-rotation="0"
   fit-margin-bottom="0"
   fit-margin-right="0"
   fit-margin-left="0"
   fit-margin-top="0"
   inkscape:current-layer="Ebene_1"
   inkscape:window-maximized="1"
   inkscape:window-y="0"
   inkscape:window-x="0"
   inkscape:cy="110.10275"
   inkscape:cx="-387.8732"
   inkscape:zoom="1.6820179"
   showgrid="false"
   id="namedview4138"
   inkscape:window-height="1373"
   inkscape:window-width="3440"
   inkscape:pageshadow="2"
   inkscape:pageopacity="0"
   guidetolerance="10"
   gridtolerance="10"
   objecttolerance="10"
   borderopacity="1"
   bordercolor="#666666"
   pagecolor="#ffffff" />
<path
   d="M 82.810547 6.1230469 L 5.3007812 50.951172 L 5.3007812 140.60938 L 82.810547 185.4375 L 83.537109 185.01758 L 83.537109 6.5429688 L 82.810547 6.1230469 z "
   inkscape:label="#outerline"
   style="fill:none;fill-opacity:1;stroke:#ffffff;stroke-width:2.64995;stroke-miterlimit:10"
   id="polygon3287" /><path
   d="M 82.810547 0 L 0 47.699219 L 0 138.67773 L 0.26367188 138.83008 L 0.26367188 139.63086 L 0.26367188 143.62109 L 3.4902344 145.61523 L 79.501953 189.4668 L 82.892578 191.45117 L 86.310547 189.4668 L 162.45117 145.61523 L 165.92188 143.62109 L 165.92188 139.63086 L 165.92188 51.927734 L 165.92188 47.935547 L 165.62109 47.763672 L 165.62109 47.699219 L 82.810547 0 z "
   style="fill:#6a0143;fill-opacity:1;stroke-width:1.32497"
   id="polygon4013" /><path
   sodipodi:nodetypes="ccccc"
   d="M 82.960933,7.6005834 V 183.85254 l 76.185557,-44.0625 V 50.131824 Z"
   style="fill:#5790f6;fill-opacity:1;stroke-width:2.93"
   id="rect3278" />




<path
   sodipodi:nodetypes="ccccc"
   id="path3318"
   d="M 6.7753935,51.663083 159.14649,139.79004 82.960933,183.85254 82.810547,6.1230469 Z"
   style="fill:#604ea3;fill-opacity:1;stroke:none;stroke-width:1px;stroke-linecap:butt;stroke-linejoin:miter;stroke-opacity:1" /><g
   transform="matrix(1.3249745,0,0,1.3249745,-47.067006,-23.859001)"
   id="g4281"><path
     d="m 133.45691,60.461638 v 0 c 2.27263,0 4.11462,1.841988 4.11462,4.114628 v 27.330241 c 0,2.27264 -1.84199,4.114628 -4.11462,4.114628 -2.27264,0 -4.11463,-1.841988 -4.11463,-4.114628 V 64.576266 c 0,-2.27264 1.84199,-4.114628 4.11463,-4.114628"
     style="fill:#ffffff;fill-opacity:1;fill-rule:nonzero;stroke:none;stroke-width:0.55783975"
     id="path42"
     inkscape:connector-curvature="0" /><g
     id="g44"
     transform="matrix(0.55783976,0,0,-0.55783976,120.13631,77.682765)"><path
       d="M 0,0 H -0.506 C -0.57,0 -0.633,-0.008 -0.698,-0.01 -0.762,-0.008 -0.825,0 -0.89,0 h -7.283 c -3.929,0 -7.359,-2.965 -7.613,-6.885 -0.278,-4.296 3.124,-7.867 7.361,-7.867 0.776,0 1.343,-0.754 1.111,-1.494 -0.658,-2.088 -2.341,-3.751 -4.547,-4.333 -2.074,-0.547 -4.276,-0.821 -6.605,-0.821 -4.007,0 -7.574,0.865 -10.7,2.595 -3.127,1.73 -5.57,4.144 -7.331,7.24 -1.761,3.096 -2.641,6.617 -2.641,10.564 0,4.006 0.88,7.558 2.641,10.654 1.761,3.097 4.219,5.493 7.377,7.195 3.156,1.698 6.768,2.549 10.836,2.549 4.681,0 8.865,-1.269 12.55,-3.807 2.341,-1.612 5.524,-1.588 7.757,0.171 3.48,2.741 3.289,8.045 -0.315,10.452 -1.7,1.136 -3.538,2.112 -5.512,2.928 -4.553,1.881 -9.623,2.823 -15.208,2.823 -6.679,0 -12.69,-1.412 -18.03,-4.235 -5.344,-2.822 -9.517,-6.738 -12.522,-11.747 -3.005,-5.008 -4.508,-10.67 -4.508,-16.983 0,-6.315 1.503,-11.975 4.508,-16.984 3.005,-5.009 7.148,-8.924 12.43,-11.747 5.282,-2.824 11.231,-4.235 17.849,-4.235 4.613,0 9.197,0.699 13.751,2.095 0.045,0.014 0.091,0.028 0.136,0.042 7.104,2.202 11.884,8.86 11.884,16.297 v 9.047 C 6.486,-2.904 3.583,0 0,0"
       style="fill:#ffffff;fill-opacity:1;fill-rule:nonzero;stroke:none"
       id="path46"
       inkscape:connector-curvature="0" /></g><g
     id="g48"
     transform="matrix(0.55783976,0,0,-0.55783976,85.80763,64.525332)"><path
       d="m 0,0 v -49.176 c 0,-4.023 -3.262,-7.285 -7.286,-7.285 h -1.381 c -2.181,0 -4.247,0.977 -5.631,2.662 l -24.229,29.505 c -1.804,2.197 -5.368,0.921 -5.368,-1.922 v -22.96 c 0,-4.023 -3.261,-7.285 -7.285,-7.285 -4.023,0 -7.285,3.262 -7.285,7.285 V 0 c 0,4.024 3.262,7.285 7.285,7.285 h 1.468 c 2.184,0 4.253,-0.979 5.636,-2.669 l 24.135,-29.475 c 1.802,-2.202 5.37,-0.927 5.37,1.918 V 0 c 0,4.024 3.261,7.285 7.285,7.285 C -3.262,7.285 0,4.024 0,0"
       style="fill:#ffffff;fill-opacity:1;fill-rule:nonzero;stroke:none"
       id="path50"
       inkscape:connector-curvature="0" /></g></g><g
   style="fill:#ffffff"
   transform="matrix(0.39280527,0,0,0.39280527,71.339042,42.930824)"
   id="g3175"><path
     id="path1815"
     d="m -89.05666,224.13423 h -17.43 l -3.32,8.05 h -8.92 l 16.75,-37.58 h 8.59 l 16.8,37.58 h -9.12 z m -2.74,-6.61 -6,-14.38 -6,14.38 z"
     class="cls-3"
     style="fill:#ffffff" /><path
     id="path1817"
     d="m -58.21666,231.62423 a 20.07,20.07 0 0 1 -6.68,-3.14 l 2.95,-6.55 a 19.88,19.88 0 0 0 5.74,2.85 21.47,21.47 0 0 0 6.66,1.07 10.58,10.58 0 0 0 5.48,-1.1 3.32,3.32 0 0 0 1.77,-2.92 2.79,2.79 0 0 0 -1.05,-2.23 7.82,7.82 0 0 0 -2.68,-1.42 c -1.09,-0.36 -2.57,-0.75 -4.43,-1.18 a 60.44,60.44 0 0 1 -7,-2 11.4,11.4 0 0 1 -4.7,-3.28 8.82,8.82 0 0 1 -2,-6 10.46,10.46 0 0 1 1.77,-5.93 11.87,11.87 0 0 1 5.34,-4.22 22,22 0 0 1 8.73,-1.55 29,29 0 0 1 7,0.85 21.1,21.1 0 0 1 6,2.47 l -2.68,6.61 a 21,21 0 0 0 -10.42,-3 9.72,9.72 0 0 0 -5.39,1.19 3.58,3.58 0 0 0 -1.75,3.11 3,3 0 0 0 2,2.87 30.79,30.79 0 0 0 6.14,1.85 61,61 0 0 1 7,2 11.72,11.72 0 0 1 4.7,3.22 8.64,8.64 0 0 1 2,6 10.25,10.25 0 0 1 -1.8,5.88 12.15,12.15 0 0 1 -5.39,4.22 22.16,22.16 0 0 1 -8.75,1.55 30.59,30.59 0 0 1 -8.56,-1.22 z"
     class="cls-3"
     style="fill:#ffffff" /><path
     id="path1819"
     d="m -13.22666,231.62423 a 20,20 0 0 1 -6.69,-3.14 l 3,-6.55 a 19.88,19.88 0 0 0 5.74,2.85 21.47,21.47 0 0 0 6.6599998,1.07 10.57,10.57 0 0 0 5.46999999,-1.1 3.32,3.32 0 0 0 1.77000001,-2.92 2.81,2.81 0 0 0 -1,-2.23 7.87,7.87 0 0 0 -2.69000001,-1.42 c -1.08999999,-0.36 -2.56999999,-0.75 -4.42999999,-1.18 a 61.64,61.64 0 0 1 -6.9999998,-2 11.47,11.47 0 0 1 -4.7,-3.28 8.87,8.87 0 0 1 -2,-6 10.4,10.4 0 0 1 1.78,-5.93 11.87,11.87 0 0 1 5.34,-4.22 21.94,21.94 0 0 1 8.7199998,-1.55 29,29 0 0 1 7,0.85 21,21 0 0 1 6,2.47 l -2.68,6.61 a 20.93,20.93 0 0 0 -10.41,-3 9.73,9.73 0 0 0 -5.4,1.19 3.59,3.59 0 0 0 -1.7399998,3.11 3,3 0 0 0 1.9999998,2.87 30.71,30.71 0 0 0 6.15,1.85 61.64,61.64 0 0 1 7,2 11.79,11.79 0 0 1 4.7,3.22 8.68,8.68 0 0 1 1.9500002,6 10.32,10.32 0 0 1 -1.7900002,5.88 12.13,12.13 0 0 1 -5.4,4.22 22.13,22.13 0 0 1 -8.75,1.55 30.52,30.52 0 0 1 -8.5999998,-1.22 z"
     class="cls-3"
     style="fill:#ffffff" /><path
     id="path1821"
     d="m 32.18334,228.38423 q -4.49,-4.46 -4.48,-12.73 v -21 h 8.69 v 20.68 q 0,10.1 8.38,10.09 a 7.82,7.82 0 0 0 6.22,-2.44 c 1.44,-1.63 2.15,-4.18 2.15,-7.65 v -20.72 h 8.59 v 21 q 0,8.28 -4.48,12.73 -4.48,4.45 -12.53,4.45 -8.05,0.04 -12.54,-4.41 z"
     class="cls-3"
     style="fill:#ffffff" /><path
     id="path1823"
     d="m 105.00334,232.19423 -7.25,-10.47 h -8 v 10.47 h -8.69 v -37.58 h 16.26 a 21,21 0 0 1 8.67,1.66 12.42,12.42 0 0 1 7.65,12 12.22,12.22 0 0 1 -7.73,11.86 l 8.43,12.08 z m -2.2,-28.8 a 9.13,9.13 0 0 0 -6,-1.69 h -7.09 v 13.09 h 7.09 a 9.07,9.07 0 0 0 6,-1.71 6,6 0 0 0 2,-4.84 5.93,5.93 0 0 0 -2,-4.85 z"
     class="cls-3"
     style="fill:#ffffff" /><path
     id="path1825"
     d="m 160.34334,225.21423 v 7 h -29.09 v -37.6 h 28.4 v 7 h -19.76 v 8.16 h 17.45 v 6.76 h -17.45 v 8.7 z"
     class="cls-3"
     style="fill:#ffffff" /></g><path
   style="color:#000000;font-style:normal;font-variant:normal;font-weight:normal;font-stretch:normal;font-size:medium;line-height:normal;font-family:sans-serif;font-variant-ligatures:normal;font-variant-position:normal;font-variant-caps:normal;font-variant-numeric:normal;font-variant-alternates:normal;font-variant-east-asian:normal;font-feature-settings:normal;font-variation-settings:normal;text-indent:0;text-align:start;text-decoration:none;text-decoration-line:none;text-decoration-style:solid;text-decoration-color:#000000;letter-spacing:normal;word-spacing:normal;text-transform:none;writing-mode:lr-tb;direction:ltr;text-orientation:mixed;dominant-baseline:auto;baseline-shift:baseline;text-anchor:start;white-space:normal;shape-padding:0;shape-margin:0;inline-size:0;clip-rule:nonzero;display:inline;overflow:visible;visibility:visible;isolation:auto;mix-blend-mode:normal;color-interpolation:sRGB;color-interpolation-filters:linearRGB;solid-color:#000000;solid-opacity:1;vector-effect:none;fill:#ffffff;fill-opacity:1;fill-rule:nonzero;stroke:none;stroke-width:2.64995;stroke-linecap:butt;stroke-linejoin:miter;stroke-miterlimit:10;stroke-dasharray:none;stroke-dashoffset:0;stroke-opacity:1;color-rendering:auto;image-rendering:auto;shape-rendering:auto;text-rendering:auto;enable-background:accumulate;stop-color:#000000"
   d="M 82.960933,4.5380834 4.1250035,50.133786 v 91.185554 l 0.66211,0.38281 78.1738195,45.21094 78.835947,-45.59375 V 50.133786 Z m 0,3.0625 76.185557,44.0624996 V 139.79004 L 82.960933,183.85254 6.7753935,139.792 V 51.663083 Z"
   id="path3312" /></svg>
